<svg version="1.1" id="Layer_1" xmlns="http://www.w3.org/2000/svg" xmlns:xlink="http://www.w3.org/1999/xlink" x="0px" y="0px"
	 width="100%" viewBox="0 0 1067 1067" enable-background="new 0 0 1067 1067" xml:space="preserve">
<path fill="#F6F8F0" opacity="1.000000" stroke="none" 
	d="
M589.000000,1068.000000 
	C392.689545,1068.000000 196.879089,1068.000000 1.034317,1068.000000 
	C1.034317,712.397766 1.034317,356.795532 1.034317,1.096644 
	C356.560638,1.096644 712.121338,1.096644 1067.841064,1.096644 
	C1067.841064,356.666595 1067.841064,712.333313 1067.841064,1068.000000 
	C908.461731,1068.000000 748.980896,1068.000000 589.000000,1068.000000 
M867.916748,800.177856 
	C867.916748,800.177856 867.741638,800.243103 867.821777,799.548035 
	C867.174561,799.055481 866.527405,798.562927 865.329346,797.697388 
	C859.046326,790.375977 852.763245,783.054565 846.179260,775.101929 
	C843.223022,771.973633 840.266785,768.845276 836.996094,765.873108 
	C836.996094,765.873108 837.298279,765.693298 837.197144,765.072205 
	C836.566345,764.615234 835.935486,764.158203 834.976318,763.882202 
	C834.976318,763.882202 835.297180,763.684509 835.185608,763.019104 
	C833.229065,760.919189 831.272522,758.819214 829.273560,756.672302 
	C829.273560,756.672302 829.252747,756.612488 829.060608,755.997192 
	C822.837158,749.247620 816.613708,742.498108 810.331238,735.732056 
	C810.331238,735.732056 810.283936,735.693176 810.121948,735.121704 
	C809.516235,734.652893 808.910522,734.184082 808.040955,733.882080 
	C808.040955,733.882080 808.283203,733.685303 808.093262,733.058838 
	C802.039856,726.454468 795.922058,719.907898 789.946533,713.233765 
	C777.370239,699.187378 764.718079,685.204590 752.376038,670.954102 
	C738.097351,654.467468 723.224915,638.386169 710.229187,620.924072 
	C692.880554,597.612976 678.929138,572.205261 670.906982,543.960022 
	C668.063049,533.946594 665.336182,523.899780 662.435913,513.228821 
	C662.299500,512.819824 662.163086,512.410767 662.092041,511.133514 
	C660.664185,501.867401 659.236267,492.601288 657.629761,482.176208 
	C654.858032,483.630280 652.771179,484.420807 651.030334,485.686951 
	C638.055542,495.123718 625.149231,504.654663 611.652832,513.890015 
	C608.719360,513.720947 605.928162,513.746887 603.467529,515.911377 
	C600.350952,518.652832 597.189392,521.415771 592.704102,521.811096 
	C590.143372,522.036804 587.511658,522.256836 585.082214,523.020935 
	C577.968872,525.257935 572.526306,531.026245 564.713196,532.209290 
	C561.407898,532.709717 558.697754,534.148071 556.717346,530.977112 
	C555.305481,531.881470 554.249146,533.116699 553.134338,533.171997 
	C549.094666,533.372131 544.960449,533.649170 541.000549,533.021973 
	C534.675964,532.020081 528.280090,530.828674 522.280945,528.689514 
	C519.422241,527.670166 517.763733,523.623291 514.939819,522.101501 
	C507.895569,518.305542 504.379578,511.367096 499.364136,505.793304 
	C497.950714,504.222504 497.533020,501.758972 496.646423,499.710175 
	C495.235382,496.449524 494.440948,492.655029 489.720673,491.426544 
	C489.539062,490.631531 489.357452,489.836517 489.783234,488.903564 
	C490.065948,488.391754 490.682251,487.798187 490.579987,487.380737 
	C489.514221,483.032166 490.717316,478.612396 488.801849,473.971893 
	C487.658966,471.203156 488.227753,467.062836 485.888336,463.607086 
	C485.888336,463.607086 485.831818,463.212067 486.196716,462.538849 
	C489.084534,458.486603 487.420929,454.698242 485.524963,450.445374 
	C485.524963,450.445374 485.455841,449.972351 485.729462,449.628601 
	C485.883392,449.362244 485.937225,449.076965 485.874634,448.081421 
	C485.916016,447.392487 485.957397,446.703583 486.610962,445.966522 
	C487.323120,445.100555 488.471375,444.325409 488.673737,443.353302 
	C489.686401,438.487762 490.221222,433.516235 491.363037,428.685760 
	C492.710785,422.983826 494.612335,417.415131 496.081940,411.738953 
	C497.649597,405.683960 498.684662,399.475250 500.533630,393.513977 
	C501.978302,388.856262 506.035187,385.032684 504.659424,379.450043 
	C504.435516,378.541443 505.326477,377.259125 505.905304,376.268250 
	C509.017487,370.940857 512.193848,365.650940 515.348083,360.348145 
	C515.959656,360.591370 516.571228,360.834625 517.182800,361.077881 
	C516.904236,362.504730 516.688599,363.947601 516.330688,365.354279 
	C515.912170,366.999268 515.012390,368.598541 514.947571,370.242340 
	C514.750427,375.239838 514.287048,380.328125 514.968506,385.236450 
	C516.141418,393.684052 512.111084,400.379883 509.306763,407.297455 
	C507.301788,406.971252 505.799561,406.726868 503.579834,406.365723 
	C505.226593,411.336578 506.694885,415.354645 505.809082,420.198669 
	C504.695892,426.286194 505.765503,432.746338 504.947815,438.920441 
	C503.630157,448.869537 500.760681,458.481323 504.074158,468.790070 
	C506.627686,476.734497 506.162689,485.526245 510.795807,493.044708 
	C512.885010,496.434937 513.647034,500.653015 515.786133,504.000305 
	C519.346680,509.572021 525.671143,511.426880 531.432983,513.548279 
	C534.654419,514.734314 538.339722,517.657837 542.570984,514.438049 
	C543.801453,515.077332 544.965698,516.024048 546.273254,516.305786 
	C554.523560,518.083496 562.533691,515.848389 570.459167,514.167175 
	C572.889709,513.651611 574.804626,510.705322 577.419495,508.703156 
	C577.419495,508.703156 577.894043,508.566833 577.965393,509.178070 
	C578.004944,509.339600 578.018311,509.514374 578.091492,509.658844 
	C578.162476,509.799011 578.355530,510.031128 578.391846,510.013214 
	C585.900635,506.317108 593.398254,502.598358 600.901306,498.890381 
	C603.861023,497.427643 606.831909,495.987427 609.860229,494.506439 
	C610.825073,495.420776 611.720459,496.269257 612.914490,497.400787 
	C612.665771,491.298096 616.846924,488.280853 620.597229,485.594452 
	C626.929077,481.058838 634.057129,477.577820 637.961304,470.298523 
	C638.043274,470.145813 639.226990,470.584015 640.090210,470.793488 
	C640.090210,469.250000 640.090210,467.755432 640.405090,465.712097 
	C641.257568,465.174408 642.110107,464.636688 643.037231,464.595825 
	C643.217163,464.771851 643.397095,464.947876 643.577026,465.123871 
	C643.639893,464.629395 643.702820,464.134949 643.843384,463.297760 
	C643.843384,463.297760 644.058594,463.019928 644.847412,463.026642 
	C653.400696,460.487000 660.728821,456.244202 665.983276,448.715637 
	C667.299011,446.830414 669.733765,445.759308 671.512512,444.156708 
	C674.507019,441.458679 677.653503,438.859772 680.244751,435.802734 
	C683.038879,432.506348 685.144043,428.635132 687.797791,425.206665 
	C689.097107,423.528015 691.648865,422.573608 692.402344,420.775360 
	C693.520386,418.107361 693.544800,414.981079 693.993469,412.015564 
	C693.993469,412.015564 694.045898,412.024689 694.744324,411.873077 
	C695.174377,410.598328 695.604431,409.323578 695.993713,408.013672 
	C695.993713,408.013672 696.045898,408.025024 696.630249,407.944763 
	C699.318115,406.795837 699.658875,403.736511 701.118469,402.081787 
	C706.216919,396.302002 704.663574,389.734344 704.858032,383.379303 
	C704.902222,381.935242 703.111084,380.435028 702.070190,378.221252 
	C702.101562,377.477997 702.132996,376.734772 702.622009,375.467194 
	C704.189697,368.291809 703.121399,361.459839 699.494629,355.146332 
	C696.993591,350.792389 694.453430,346.352539 691.217957,342.559021 
	C687.904663,338.674286 683.722839,335.530243 679.987488,331.993896 
	C679.987488,331.993896 679.934753,332.071533 679.979126,331.307770 
	C678.813110,328.204987 678.070068,324.845367 676.379700,322.060944 
	C673.984924,318.116394 670.760132,314.686920 668.122437,310.876465 
	C661.505066,301.317017 654.182739,292.371552 645.226807,284.920685 
	C642.264404,282.456085 638.819702,280.622833 639.640747,277.311859 
	C637.432251,275.799744 635.096619,274.979065 634.034180,273.335388 
	C629.925293,266.978302 626.242676,260.346527 622.333740,253.857834 
	C621.978210,253.267715 621.090393,253.023773 620.534058,252.525009 
	C617.006958,249.362732 613.503540,246.174011 610.260986,242.900574 
	C610.175903,242.936188 610.090881,242.971786 609.506470,242.789841 
	C609.031433,241.987213 608.749817,240.805573 608.047913,240.447281 
	C604.930847,238.856064 601.670959,237.547974 598.503845,236.050613 
	C591.555298,232.765472 586.924500,225.971542 579.213928,223.667694 
	C574.884460,222.374100 571.717712,218.318665 568.102722,216.296677 
	C560.239624,211.898560 551.502930,209.112762 543.625977,204.253220 
	C535.080505,198.981293 524.519531,198.652313 515.209595,194.921188 
	C512.867004,193.982330 509.696564,195.334442 507.101105,194.757904 
	C500.142914,193.212234 493.466858,190.250397 486.089630,191.027115 
	C483.044312,191.347748 479.970612,191.924118 476.940704,191.771545 
	C466.361481,191.238876 455.839508,190.488525 445.257538,192.320572 
	C437.725647,193.624557 429.919128,193.687424 422.371674,193.999344 
	C413.430725,194.368820 405.505341,197.823883 396.953064,199.078293 
	C388.322083,200.344254 379.931946,202.922607 371.710052,206.747574 
	C367.028137,208.925720 363.003754,212.363434 358.051422,213.907959 
	C356.544525,214.377914 354.743134,214.491730 353.593201,215.413254 
	C349.317688,218.839508 345.220184,222.492737 341.133118,226.147156 
	C339.332855,227.756805 337.885284,229.793991 335.977997,231.242615 
	C333.407928,233.194611 330.033081,234.291824 327.916077,236.594696 
	C322.816620,242.141907 317.717133,247.830627 313.616852,254.114258 
	C309.649048,260.194916 306.962738,267.107056 303.652985,273.623199 
	C300.492615,279.845398 297.251923,286.026794 294.051483,292.228638 
	C293.044769,294.179474 292.054199,296.138580 290.909912,298.517548 
	C290.909912,298.517548 290.678101,298.901154 290.133911,298.826874 
	C286.906158,296.205475 286.174042,300.496948 284.067444,301.143036 
	C279.016571,302.692108 274.088989,304.760040 269.305542,307.027649 
	C265.458221,308.851532 262.080414,311.745056 258.151367,313.294128 
	C254.554871,314.712036 239.610275,320.662018 236.554642,322.892792 
	C236.027863,323.277374 235.344421,323.887970 234.841492,323.796906 
	C229.505417,322.830444 225.092087,326.094421 220.213837,326.859283 
	C211.500778,328.225342 202.950516,331.006378 193.906036,330.227051 
	C192.064621,330.068359 188.958054,332.752167 188.342850,332.156097 
	C184.792664,328.716492 182.684784,333.260895 179.984726,333.589111 
	C175.167450,334.174744 170.586197,336.985596 166.009399,339.090302 
	C164.657288,339.712097 163.516296,340.972778 162.522736,342.147278 
	C161.370544,343.509247 160.733902,345.371582 159.441895,346.539215 
	C155.278290,350.302124 152.853485,354.670563 151.723801,360.340454 
	C149.431152,371.847198 147.670517,383.208862 151.589874,394.656219 
	C151.770325,395.183289 152.863190,395.397980 152.902313,395.419067 
	C158.462509,418.201202 164.043381,441.068054 169.578415,463.747040 
	C170.130554,463.055969 170.784760,462.237152 171.918457,460.818207 
	C173.803879,464.112793 175.397324,466.878967 176.972305,469.655609 
	C178.064026,471.580231 178.784714,473.856506 180.276245,475.385345 
	C183.964554,479.165894 187.968124,482.644440 191.953018,486.120544 
	C192.306534,486.428925 193.448486,485.833496 194.241714,485.710938 
	C194.241714,485.710938 194.276733,485.754486 194.121048,486.536896 
	C195.648468,488.829376 196.729355,491.713531 198.804794,493.279877 
	C202.170731,495.820251 206.119370,497.640747 209.955658,499.487549 
	C212.573456,500.747742 215.418839,501.535156 218.611801,502.651031 
	C218.611801,502.651031 219.041931,502.825897 219.238754,503.422638 
	C220.209335,503.789612 221.179901,504.156616 222.600723,504.647827 
	C222.600723,504.647827 223.032349,504.826263 223.300385,505.382080 
	C223.851547,505.598938 224.402710,505.815826 224.987152,505.994232 
	C224.987152,505.994232 224.983383,506.044830 225.326782,506.645905 
	C226.350693,507.008545 227.374603,507.371216 228.729111,507.713226 
	C228.729111,507.713226 229.037598,507.833893 229.308044,508.367981 
	C229.670883,508.498352 230.033722,508.628723 230.726486,508.716309 
	C230.726486,508.716309 231.041489,508.823303 231.213242,509.401794 
	C236.853775,515.060974 243.749054,518.527039 251.471298,520.008301 
	C262.354553,522.095947 273.315979,523.801575 284.285034,525.386353 
	C285.759033,525.599304 287.472107,524.157532 289.789185,523.606812 
	C290.512482,523.667847 291.235748,523.728882 292.291382,524.347717 
	C293.512726,524.075806 295.094879,528.305725 296.746704,523.969299 
	C297.493347,523.997375 298.239960,524.025452 299.092712,524.685547 
	C300.169098,524.687561 301.245483,524.689575 302.874268,524.670166 
	C303.239685,524.710815 303.605133,524.751465 304.163696,525.358093 
	C305.114014,526.053162 306.100586,527.393738 307.009064,527.342834 
	C315.404297,526.871521 323.094269,529.452698 330.564575,532.725647 
	C333.434082,533.982910 335.701599,536.834717 338.617767,537.704041 
	C341.639801,538.604858 342.590210,540.326721 343.627716,542.851196 
	C346.405121,549.608887 349.777588,556.131409 352.360687,562.956665 
	C354.488129,568.578003 357.954590,573.912048 357.311157,581.010071 
	C357.277222,581.662659 357.243286,582.315186 356.540375,583.269226 
	C355.129974,586.701965 353.296783,590.031128 352.424164,593.595520 
	C351.490692,597.408691 351.960968,601.578674 350.936523,605.353577 
	C348.747070,613.421387 345.935669,621.319153 343.557648,629.339478 
	C343.355377,630.021545 344.488586,631.099670 344.979065,632.744751 
	C341.441589,643.792786 337.520691,654.735474 334.449371,665.911560 
	C328.700043,686.832458 322.498840,707.698425 318.221985,728.936951 
	C312.952911,755.102722 312.186798,781.796875 315.210297,808.339478 
	C317.270630,826.426575 319.846222,844.580872 324.047882,862.263977 
	C328.562225,881.263000 335.355194,899.714294 340.898254,918.480103 
	C342.079712,922.479919 343.717529,924.043518 348.140106,924.026001 
	C392.582245,923.849731 437.025360,923.952148 481.468170,923.924377 
	C514.234741,923.903931 547.001343,923.741760 579.767822,923.761963 
	C611.643921,923.781555 643.519836,923.985840 675.395935,924.049438 
	C715.647583,924.129761 755.899475,924.228455 796.151062,924.174805 
	C840.485229,924.115784 884.819214,923.895630 929.153198,923.730042 
	C930.618652,923.724548 932.083496,923.548462 934.025513,923.420532 
	C933.907227,921.354309 934.244385,919.409058 933.634705,917.829346 
	C928.684326,905.004150 924.084473,892.003723 918.331848,879.539429 
	C912.784973,867.521118 905.992249,856.077820 899.880981,843.575134 
	C899.023193,840.181458 898.519958,836.645569 897.229065,833.425476 
	C894.967712,827.784790 888.884827,824.658447 887.320190,818.242920 
	C886.683472,815.632385 884.115845,812.492859 881.672302,811.550476 
	C877.732605,810.031250 876.253967,807.187622 874.279480,804.085815 
	C873.484619,802.837280 870.675598,802.870911 868.749390,802.256409 
	C868.749390,802.256409 868.740845,802.184021 868.849548,801.538025 
	C868.476379,801.087280 868.103210,800.636536 867.916748,800.177856 
M297.421204,526.476196 
	C297.421204,526.476196 297.523132,526.414429 297.421204,526.476196 
z"/>
<path fill="#CD7554" opacity="1.000000" stroke="none" 
	d="
M899.746887,844.381897 
	C905.992249,856.077820 912.784973,867.521118 918.331848,879.539429 
	C924.084473,892.003723 928.684326,905.004150 933.634705,917.829346 
	C934.244385,919.409058 933.907227,921.354309 934.025513,923.420532 
	C932.083496,923.548462 930.618652,923.724548 929.153198,923.730042 
	C884.819214,923.895630 840.485229,924.115784 796.151062,924.174805 
	C755.899475,924.228455 715.647583,924.129761 675.395935,924.049438 
	C643.519836,923.985840 611.643921,923.781555 579.767822,923.761963 
	C547.001343,923.741760 514.234741,923.903931 481.468170,923.924377 
	C437.025360,923.952148 392.582245,923.849731 348.140106,924.026001 
	C343.717529,924.043518 342.079712,922.479919 340.898254,918.480103 
	C335.355194,899.714294 328.562225,881.263000 324.047882,862.263977 
	C319.846222,844.580872 317.270630,826.426575 315.210297,808.339478 
	C312.186798,781.796875 312.952911,755.102722 318.221985,728.936951 
	C322.498840,707.698425 328.700043,686.832458 334.449371,665.911560 
	C337.520691,654.735474 341.441589,643.792786 345.262543,632.144836 
	C348.665283,621.484009 352.145752,611.516052 354.765778,601.326782 
	C356.292297,595.390198 356.440826,589.099243 357.209351,582.967773 
	C357.243286,582.315186 357.277222,581.662659 357.546326,580.332153 
	C357.234192,573.407837 357.144775,567.080505 356.059265,560.929016 
	C351.674500,536.080505 329.220337,520.631409 303.970551,524.792175 
	C303.605133,524.751465 303.239685,524.710815 302.330566,524.442017 
	C300.853424,524.160461 299.920013,524.107056 298.986603,524.053589 
	C298.239960,524.025452 297.493347,523.997375 296.167480,523.761841 
	C294.378510,523.632935 293.168793,523.711426 291.959045,523.789917 
	C291.235748,523.728882 290.512482,523.667847 289.170624,523.303650 
	C287.944733,522.745361 287.359619,522.371704 286.726685,522.252930 
	C277.810303,520.578552 268.793365,519.326111 259.991272,517.187378 
	C250.239655,514.817871 240.683029,511.645874 231.041489,508.823303 
	C231.041489,508.823303 230.726486,508.716309 230.401215,508.493622 
	C229.729828,508.125244 229.383713,507.979584 229.037598,507.833923 
	C229.037598,507.833893 228.729111,507.713226 228.407516,507.418335 
	C227.051743,506.763885 226.017563,506.404358 224.983383,506.044830 
	C224.983383,506.044830 224.987152,505.994232 224.809570,505.756897 
	C224.098770,505.288452 223.565567,505.057373 223.032349,504.826263 
	C223.032349,504.826263 222.600723,504.647827 222.262085,504.294983 
	C220.962952,503.570099 220.002441,503.197998 219.041931,502.825897 
	C219.041931,502.825897 218.611801,502.651031 218.270203,502.297089 
	C210.044647,496.546936 202.160690,491.150726 194.276733,485.754517 
	C194.276733,485.754486 194.241714,485.710938 194.183350,485.358185 
	C180.520401,470.235657 170.669846,453.327240 165.759857,433.801392 
	C161.310242,416.106384 157.074554,398.349884 153.175156,380.526276 
	C148.822678,360.631622 157.238739,349.304657 171.761124,341.980652 
	C179.753387,337.949951 188.900528,335.813019 197.766830,333.986755 
	C223.103592,328.767853 248.405487,323.446167 271.737030,311.819855 
	C278.513794,308.442902 284.389404,303.257507 290.678101,298.901154 
	C290.678101,298.901154 290.909912,298.517548 291.295593,298.172882 
	C296.414642,290.723419 301.478088,283.811981 305.785828,276.457855 
	C309.855530,269.510101 312.278564,261.473236 316.978455,255.051727 
	C322.447754,247.578918 329.412872,241.145935 336.069733,234.608795 
	C349.392975,221.525208 365.719543,213.175537 382.981995,206.863068 
	C406.008362,198.442841 430.168976,194.859222 454.513245,194.390198 
	C470.447723,194.083221 486.599579,195.535767 502.351746,198.075546 
	C516.930603,200.426178 531.656860,203.889282 545.336426,209.330734 
	C567.683777,218.220047 587.794922,231.494598 606.662781,246.449554 
	C611.586365,250.352081 616.319153,254.608459 620.544250,259.244843 
	C624.174561,263.228546 626.680725,268.217590 630.165100,272.357117 
	C639.644165,283.618439 649.510498,294.554169 658.968140,305.832947 
	C666.159607,314.409210 672.960205,323.313293 679.934753,332.071533 
	C679.934753,332.071533 679.987488,331.993896 680.015259,332.375549 
	C682.703491,336.465729 685.300293,340.222107 688.036987,343.873596 
	C695.243835,353.489624 699.724121,364.287659 702.164368,375.991516 
	C702.132996,376.734772 702.101562,377.477997 702.037720,379.048096 
	C701.737793,383.802246 701.955933,387.840790 701.087952,391.630554 
	C699.814941,397.188751 697.764832,402.568970 696.045898,408.025024 
	C696.045898,408.025024 695.993713,408.013672 695.745728,408.218323 
	C695.013794,409.623566 694.529846,410.824127 694.045898,412.024689 
	C694.045898,412.024689 693.993469,412.015564 693.717285,412.196289 
	C690.646851,416.023926 688.125793,419.926697 685.000183,423.263153 
	C678.953918,429.717407 672.567017,435.852509 665.942383,442.111572 
	C664.823853,442.445404 663.996094,442.669708 663.357971,443.147430 
	C654.144592,450.044708 644.705933,456.676361 635.891113,464.052612 
	C632.550476,466.848022 630.661621,471.378357 628.054443,475.061584 
	C627.997864,475.005219 628.117249,475.110291 627.734375,475.076721 
	C621.756653,476.867432 616.952087,479.693085 614.302856,485.256470 
	C614.258850,485.207214 614.280640,485.337494 613.916443,485.267700 
	C613.070984,485.901489 612.589722,486.605133 612.026062,487.490540 
	C611.781982,487.900269 611.565247,488.046692 610.906677,488.080017 
	C609.716003,488.751007 608.912048,489.453552 608.109863,490.172485 
	C608.111511,490.188843 608.143738,490.210693 607.760315,490.153992 
	C604.757446,491.062500 602.100342,491.937622 599.526611,493.012390 
	C594.717651,495.020477 589.185425,496.231964 585.374817,499.454712 
	C580.770813,503.348541 576.369019,505.277954 570.395996,505.250427 
	C567.490295,505.237000 564.572083,507.366821 561.665710,508.541931 
	C561.114685,508.764801 560.601990,509.265747 560.056458,509.289398 
	C556.543762,509.441895 553.012634,509.328430 549.514526,509.623138 
	C543.850586,510.100250 538.379028,510.568604 533.113892,507.275330 
	C531.169983,506.059418 528.185303,506.507385 525.494385,506.119293 
	C525.086365,505.885406 524.941284,505.672699 524.808105,505.031006 
	C523.447083,503.814941 522.156433,502.971771 520.930420,502.063538 
	C520.995117,501.998505 520.871887,502.133514 520.915649,501.756897 
	C519.005615,496.243073 517.098694,491.087402 515.083313,485.974487 
	C513.501892,481.962616 510.687347,478.094788 510.347809,474.003052 
	C509.509521,463.900574 509.151184,453.666840 509.784790,443.560150 
	C510.381073,434.048279 510.955261,424.014587 514.424133,415.367828 
	C517.202881,408.441132 520.286011,401.891205 520.653625,394.420349 
	C521.004272,387.294861 520.945679,380.149231 521.192932,372.678650 
	C522.542542,368.376190 523.779236,364.411469 524.984802,360.437286 
	C525.689392,358.114594 526.403259,355.792084 527.010437,353.442993 
	C528.897522,346.142242 531.847534,338.894318 532.282898,331.502075 
	C532.727234,323.959259 531.044067,316.201355 529.617188,308.665436 
	C528.392090,302.194977 526.214233,295.904877 524.457703,289.535034 
	C523.918152,289.582336 523.378540,289.629639 522.838989,289.676971 
	C522.363953,292.813934 522.026733,295.979431 521.384277,299.081726 
	C520.175537,304.918762 518.680359,310.697357 517.515686,316.542389 
	C516.673584,320.768768 516.374146,325.106262 515.472839,329.317139 
	C514.141846,335.535858 512.713684,341.752075 510.908478,347.845398 
	C509.383575,352.992493 508.293243,358.775726 505.125671,362.790070 
	C501.772339,367.039764 500.707214,371.541046 499.522125,376.310486 
	C498.707184,379.590271 498.282776,382.994690 497.186249,386.171661 
	C494.073303,395.190857 489.781677,403.910950 487.672394,413.141449 
	C485.071899,424.521240 483.678711,436.256073 482.768768,447.915863 
	C482.138489,455.992371 482.361908,464.349243 483.754242,472.309662 
	C485.143036,480.249786 484.175385,488.243866 486.681885,496.302795 
	C489.706085,506.026184 495.693420,513.001221 502.185760,519.919250 
	C504.274384,522.144836 507.610870,523.199463 510.541504,524.893250 
	C510.921265,525.158325 511.080658,525.362976 511.170563,525.977783 
	C514.158203,529.105469 517.157471,531.869019 520.162842,534.625854 
	C521.998413,536.309753 523.832031,537.195374 526.646790,536.787903 
	C529.126831,536.428894 531.805115,537.791138 534.415100,537.891052 
	C537.965210,538.026978 541.533630,537.685303 545.411865,537.603516 
	C546.154846,537.719788 546.580139,537.781128 547.083008,538.031921 
	C547.438538,538.094910 547.716614,537.968384 548.247314,537.803223 
	C548.668518,537.790466 548.836975,537.816467 549.083008,538.031860 
	C549.438599,538.094910 549.716614,537.968384 550.247314,537.803223 
	C550.668518,537.790466 550.836975,537.816467 551.083008,538.031921 
	C551.438599,538.094910 551.716614,537.968384 552.316772,537.788513 
	C553.065674,537.656433 553.492371,537.577820 553.953369,537.825317 
	C554.121216,538.446655 554.287720,539.010498 554.384033,538.998840 
	C562.520569,538.006409 570.875916,537.799683 578.714844,535.682434 
	C585.425659,533.869873 591.383484,529.444824 597.961731,526.925354 
	C608.452698,522.907288 618.140930,517.227234 625.653198,509.296753 
	C632.412964,502.160767 640.091858,497.237671 648.556763,492.928253 
	C650.913330,491.728516 652.897156,491.626129 654.056396,494.163788 
	C655.945190,498.298096 660.157898,501.389679 659.231384,506.895142 
	C658.978455,508.397949 661.031738,510.288940 662.026733,512.001770 
	C662.163086,512.410767 662.299500,512.819824 662.174988,513.690430 
	C661.610718,520.768921 661.307373,527.385803 660.758545,534.203979 
	C660.376831,535.238281 660.240540,536.071289 660.104309,536.904297 
	C660.325500,536.932007 660.546692,536.959717 660.767883,536.987427 
	C660.843628,535.989990 660.919434,534.992554 661.260132,534.203857 
	C662.826294,536.193237 665.117126,537.914978 665.227234,539.766418 
	C665.473022,543.900513 667.614746,546.915649 669.183899,550.443542 
	C673.919678,561.091309 677.794434,572.122009 681.874146,583.052979 
	C681.827881,583.066895 681.912231,583.031189 682.302856,583.148560 
	C684.150635,586.171509 685.540466,589.135925 687.262634,591.892761 
	C692.103516,599.642090 697.081116,607.305908 701.874146,615.052979 
	C701.827881,615.066895 701.912292,615.031189 702.303589,615.149048 
	C705.121216,619.626282 707.221802,624.266907 710.252869,628.188171 
	C713.576294,632.487793 717.926392,635.976807 721.519897,640.089233 
	C725.329712,644.449280 728.943726,649.005676 732.336426,653.698120 
	C736.081299,658.877808 739.477722,664.309448 742.861145,669.384216 
	C742.926453,669.205933 743.164124,668.556641 743.147278,668.602722 
	C744.728821,670.339966 746.203064,672.187561 747.910950,673.785400 
	C750.957825,676.635803 754.356323,679.133667 757.233093,682.137756 
	C764.270813,689.487000 771.076782,697.057739 778.020813,704.497559 
	C779.299377,705.867432 780.910095,706.931580 782.160278,708.322998 
	C789.518188,716.512268 796.759644,724.807556 804.216736,732.904541 
	C804.968506,733.720825 806.899475,733.451050 808.283203,733.685303 
	C808.283203,733.685303 808.040955,733.882080 808.121704,734.159668 
	C808.896240,734.855896 809.590088,735.274536 810.283936,735.693176 
	C810.283936,735.693176 810.331238,735.732056 810.179199,736.010803 
	C810.988525,737.792908 812.167358,739.201294 812.873352,740.816345 
	C815.753174,747.403870 821.791382,751.184143 826.421814,756.203979 
	C826.923462,756.747864 828.288330,756.495483 829.252747,756.612488 
	C829.252747,756.612488 829.273560,756.672302 829.204468,757.083618 
	C830.020447,760.721802 830.850647,764.003174 835.297180,763.684509 
	C835.297180,763.684509 834.976318,763.882202 835.089294,764.155457 
	C835.900940,764.850220 836.599609,765.271729 837.298279,765.693298 
	C837.298279,765.693298 836.996094,765.873108 837.087097,766.164612 
	C839.916382,769.911865 840.756531,775.270813 846.480164,775.733215 
	C852.763245,783.054565 859.046326,790.375977 865.671021,798.186035 
	C866.589050,799.197510 867.165344,799.720337 867.741638,800.243103 
	C867.741638,800.243103 867.916748,800.177856 867.854614,800.474854 
	C868.108582,801.242554 868.424744,801.713318 868.740845,802.184021 
	C868.740845,802.184021 868.749390,802.256409 868.863770,802.604675 
	C873.396912,808.655090 877.921021,814.279419 882.208862,820.078369 
	C888.148010,828.110718 893.909424,836.274414 899.746887,844.381897 
z"/>
<path fill="#F6E0CA" opacity="1.000000" stroke="none" 
	d="
M679.956909,331.689636 
	C672.960205,323.313293 666.159607,314.409210 658.968140,305.832947 
	C649.510498,294.554169 639.644165,283.618439 630.165100,272.357117 
	C626.680725,268.217590 624.174561,263.228546 620.544250,259.244843 
	C616.319153,254.608459 611.586365,250.352081 606.662781,246.449554 
	C587.794922,231.494598 567.683777,218.220047 545.336426,209.330734 
	C531.656860,203.889282 516.930603,200.426178 502.351746,198.075546 
	C486.599579,195.535767 470.447723,194.083221 454.513245,194.390198 
	C430.168976,194.859222 406.008362,198.442841 382.981995,206.863068 
	C365.719543,213.175537 349.392975,221.525208 336.069733,234.608795 
	C329.412872,241.145935 322.447754,247.578918 316.978455,255.051727 
	C312.278564,261.473236 309.855530,269.510101 305.785828,276.457855 
	C301.478088,283.811981 296.414642,290.723419 291.368744,297.961060 
	C292.054199,296.138580 293.044769,294.179474 294.051483,292.228638 
	C297.251923,286.026794 300.492615,279.845398 303.652985,273.623199 
	C306.962738,267.107056 309.649048,260.194916 313.616852,254.114258 
	C317.717133,247.830627 322.816620,242.141907 327.916077,236.594696 
	C330.033081,234.291824 333.407928,233.194611 335.977997,231.242615 
	C337.885284,229.793991 339.332855,227.756805 341.133118,226.147156 
	C345.220184,222.492737 349.317688,218.839508 353.593201,215.413254 
	C354.743134,214.491730 356.544525,214.377914 358.051422,213.907959 
	C363.003754,212.363434 367.028137,208.925720 371.710052,206.747574 
	C379.931946,202.922607 388.322083,200.344254 396.953064,199.078293 
	C405.505341,197.823883 413.430725,194.368820 422.371674,193.999344 
	C429.919128,193.687424 437.725647,193.624557 445.257538,192.320572 
	C455.839508,190.488525 466.361481,191.238876 476.940704,191.771545 
	C479.970612,191.924118 483.044312,191.347748 486.089630,191.027115 
	C493.466858,190.250397 500.142914,193.212234 507.101105,194.757904 
	C509.696564,195.334442 512.867004,193.982330 515.209595,194.921188 
	C524.519531,198.652313 535.080505,198.981293 543.625977,204.253220 
	C551.502930,209.112762 560.239624,211.898560 568.102722,216.296677 
	C571.717712,218.318665 574.884460,222.374100 579.213928,223.667694 
	C586.924500,225.971542 591.555298,232.765472 598.503845,236.050613 
	C601.670959,237.547974 604.930847,238.856064 608.047913,240.447281 
	C608.749817,240.805573 609.031433,241.987213 609.753235,242.894928 
	C610.000000,243.000000 609.992371,242.994003 609.992371,242.994003 
	C613.503540,246.174011 617.006958,249.362732 620.534058,252.525009 
	C621.090393,253.023773 621.978210,253.267715 622.333740,253.857834 
	C626.242676,260.346527 629.925293,266.978302 634.034180,273.335388 
	C635.096619,274.979065 637.432251,275.799744 639.640747,277.311859 
	C638.819702,280.622833 642.264404,282.456085 645.226807,284.920685 
	C654.182739,292.371552 661.505066,301.317017 668.122437,310.876465 
	C670.760132,314.686920 673.984924,318.116394 676.379700,322.060944 
	C678.070068,324.845367 678.813110,328.204987 679.956909,331.689636 
z"/>
<path fill="#F9E6D0" opacity="1.000000" stroke="none" 
	d="
M524.878418,505.403931 
	C524.941284,505.672699 525.086365,505.885406 525.726135,506.395630 
	C531.418640,508.936066 536.698486,511.122986 541.989319,513.511841 
	C542.000244,513.713806 542.034302,514.116882 542.034302,514.116882 
	C538.339722,517.657837 534.654419,514.734314 531.432983,513.548279 
	C525.671143,511.426880 519.346680,509.572021 515.786133,504.000305 
	C513.647034,500.653015 512.885010,496.434937 510.795807,493.044708 
	C506.162689,485.526245 506.627686,476.734497 504.074158,468.790070 
	C500.760681,458.481323 503.630157,448.869537 504.947815,438.920441 
	C505.765503,432.746338 504.695892,426.286194 505.809082,420.198669 
	C506.694885,415.354645 505.226593,411.336578 503.579834,406.365723 
	C505.799561,406.726868 507.301788,406.971252 509.306763,407.297455 
	C512.111084,400.379883 516.141418,393.684052 514.968506,385.236450 
	C514.287048,380.328125 514.750427,375.239838 514.947571,370.242340 
	C515.012390,368.598541 515.912170,366.999268 516.330688,365.354279 
	C516.688599,363.947601 516.904236,362.504730 517.182800,361.077881 
	C516.571228,360.834625 515.959656,360.591370 515.348083,360.348145 
	C512.193848,365.650940 509.017487,370.940857 505.905304,376.268250 
	C505.326477,377.259125 504.435516,378.541443 504.659424,379.450043 
	C506.035187,385.032684 501.978302,388.856262 500.533630,393.513977 
	C498.684662,399.475250 497.649597,405.683960 496.081940,411.738953 
	C494.612335,417.415131 492.710785,422.983826 491.363037,428.685760 
	C490.221222,433.516235 489.686401,438.487762 488.673737,443.353302 
	C488.471375,444.325409 487.323120,445.100555 486.231018,445.545349 
	C487.156097,422.283844 495.205200,401.086395 502.009796,379.613770 
	C505.560852,368.408081 510.132141,357.526825 513.725098,346.332886 
	C516.187439,338.661377 517.757935,330.703644 520.016602,323.052399 
	C520.457520,326.723511 521.125305,330.289795 520.639771,333.691406 
	C519.907837,338.818909 518.275940,343.812836 517.269775,348.911530 
	C517.106628,349.738403 518.199768,350.813202 518.712158,351.773407 
	C519.394775,352.307037 520.077393,352.840698 520.759949,353.374359 
	C521.392151,351.890045 522.851196,350.163940 522.501038,348.966980 
	C521.466125,345.428650 524.389893,345.287903 526.019165,344.394379 
	C524.119812,354.208771 522.221069,363.620544 520.199890,373.435791 
	C517.831848,384.205719 515.848511,394.637512 513.287170,404.925385 
	C507.643677,427.593048 503.047272,450.339905 507.838135,473.759888 
	C509.962189,484.143341 512.945496,494.324615 520.871887,502.133514 
	C520.871887,502.133514 520.995117,501.998505 521.049438,502.372711 
	C522.362000,503.632568 523.620239,504.518250 524.878418,505.403931 
z"/>
<path fill="#F5DFC9" opacity="1.000000" stroke="none" 
	d="
M290.406006,298.864014 
	C284.389404,303.257507 278.513794,308.442902 271.737030,311.819855 
	C248.405487,323.446167 223.103592,328.767853 197.766830,333.986755 
	C188.900528,335.813019 179.753387,337.949951 171.761124,341.980652 
	C157.238739,349.304657 148.822678,360.631622 153.175156,380.526276 
	C157.074554,398.349884 161.310242,416.106384 165.759857,433.801392 
	C170.669846,453.327240 180.520401,470.235657 194.174622,485.331665 
	C193.448486,485.833496 192.306534,486.428925 191.953018,486.120544 
	C187.968124,482.644440 183.964554,479.165894 180.276245,475.385345 
	C178.784714,473.856506 178.064026,471.580231 176.972305,469.655609 
	C175.397324,466.878967 173.803879,464.112793 171.918457,460.818207 
	C170.784760,462.237152 170.130554,463.055969 169.578415,463.747040 
	C164.043381,441.068054 158.462509,418.201202 152.902313,395.419067 
	C152.863190,395.397980 151.770325,395.183289 151.589874,394.656219 
	C147.670517,383.208862 149.431152,371.847198 151.723801,360.340454 
	C152.853485,354.670563 155.278290,350.302124 159.441895,346.539215 
	C160.733902,345.371582 161.370544,343.509247 162.522736,342.147278 
	C163.516296,340.972778 164.657288,339.712097 166.009399,339.090302 
	C170.586197,336.985596 175.167450,334.174744 179.984726,333.589111 
	C182.684784,333.260895 184.792664,328.716492 188.342850,332.156097 
	C188.958054,332.752167 192.064621,330.068359 193.906036,330.227051 
	C202.950516,331.006378 211.500778,328.225342 220.213837,326.859283 
	C225.092087,326.094421 229.505417,322.830444 234.841492,323.796906 
	C235.344421,323.887970 236.027863,323.277374 236.554642,322.892792 
	C239.610275,320.662018 254.554871,314.712036 258.151367,313.294128 
	C262.080414,311.745056 265.458221,308.851532 269.305542,307.027649 
	C274.088989,304.760040 279.016571,302.692108 284.067444,301.143036 
	C286.174042,300.496948 286.906158,296.205475 290.406006,298.864014 
z"/>
<path fill="#C38B70" opacity="1.000000" stroke="none" 
	d="
M519.727112,322.873840 
	C517.757935,330.703644 516.187439,338.661377 513.725098,346.332886 
	C510.132141,357.526825 505.560852,368.408081 502.009796,379.613770 
	C495.205200,401.086395 487.156097,422.283844 485.924927,445.569427 
	C485.957397,446.703583 485.916016,447.392487 485.669678,448.563843 
	C485.461731,449.354980 485.458801,449.663666 485.455841,449.972351 
	C485.455841,449.972351 485.524963,450.445374 485.341980,451.119080 
	C485.383270,455.599213 485.607544,459.405640 485.831818,463.212067 
	C485.831818,463.212067 485.888336,463.607086 485.872620,464.257477 
	C486.963257,472.952393 488.069550,480.996948 489.175842,489.041473 
	C489.357452,489.836517 489.539062,490.631531 489.834961,492.085602 
	C490.486542,494.280914 490.938629,495.853424 491.574890,497.347534 
	C496.004578,507.749512 502.894684,516.474121 510.376495,524.789734 
	C507.610870,523.199463 504.274384,522.144836 502.185760,519.919250 
	C495.693420,513.001221 489.706085,506.026184 486.681885,496.302795 
	C484.175385,488.243866 485.143036,480.249786 483.754242,472.309662 
	C482.361908,464.349243 482.138489,455.992371 482.768768,447.915863 
	C483.678711,436.256073 485.071899,424.521240 487.672394,413.141449 
	C489.781677,403.910950 494.073303,395.190857 497.186249,386.171661 
	C498.282776,382.994690 498.707184,379.590271 499.522125,376.310486 
	C500.707214,371.541046 501.772339,367.039764 505.125671,362.790070 
	C508.293243,358.775726 509.383575,352.992493 510.908478,347.845398 
	C512.713684,341.752075 514.141846,335.535858 515.472839,329.317139 
	C516.374146,325.106262 516.673584,320.768768 517.515686,316.542389 
	C518.680359,310.697357 520.175537,304.918762 521.384277,299.081726 
	C522.026733,295.979431 522.363953,292.813934 522.838989,289.676971 
	C523.378540,289.629639 523.918152,289.582336 524.457703,289.535034 
	C526.214233,295.904877 528.392090,302.194977 529.617188,308.665436 
	C531.044067,316.201355 532.727234,323.959259 532.282898,331.502075 
	C531.847534,338.894318 528.897522,346.142242 527.010437,353.442993 
	C526.403259,355.792084 525.689392,358.114594 524.984802,360.437286 
	C523.779236,364.411469 522.542542,368.376190 521.006470,372.684448 
	C520.694092,373.024078 520.322388,373.032349 520.322388,373.032349 
	C522.221069,363.620544 524.119812,354.208771 526.061523,344.064789 
	C526.076172,342.890961 526.047791,342.449371 526.085205,341.675964 
	C526.123779,340.895447 526.096497,340.446686 526.068237,339.550140 
	C526.156006,333.765198 526.244812,328.428009 526.602783,322.846741 
	C528.819885,313.583221 526.231689,305.183960 523.662231,295.393799 
	C522.296387,304.896820 521.138611,312.952057 519.930420,321.317688 
	C519.829041,322.043335 519.778076,322.458588 519.727112,322.873840 
z"/>
<path fill="#C38B70" opacity="1.000000" stroke="none" 
	d="
M702.004822,615.003418 
	C697.081116,607.305908 692.103516,599.642090 687.262634,591.892761 
	C685.540466,589.135925 684.150635,586.171509 682.304565,583.150879 
	C682.000000,583.000000 682.004822,583.003418 682.004822,583.003418 
	C677.794434,572.122009 673.919678,561.091309 669.183899,550.443542 
	C667.614746,546.915649 665.473022,543.900513 665.227234,539.766418 
	C665.117126,537.914978 662.826294,536.193237 661.262573,534.206299 
	C661.000000,534.000000 661.004028,534.002625 661.004028,534.002625 
	C661.307373,527.385803 661.610718,520.768921 662.234985,514.010132 
	C665.336182,523.899780 668.063049,533.946594 670.906982,543.960022 
	C678.929138,572.205261 692.880554,597.612976 710.229187,620.924072 
	C723.224915,638.386169 738.097351,654.467468 752.376038,670.954102 
	C764.718079,685.204590 777.370239,699.187378 789.946533,713.233765 
	C795.922058,719.907898 802.039856,726.454468 808.188232,733.372070 
	C806.899475,733.451050 804.968506,733.720825 804.216736,732.904541 
	C796.759644,724.807556 789.518188,716.512268 782.160278,708.322998 
	C780.910095,706.931580 779.299377,705.867432 778.020813,704.497559 
	C771.076782,697.057739 764.270813,689.487000 757.233093,682.137756 
	C754.356323,679.133667 750.957825,676.635803 747.910950,673.785400 
	C746.203064,672.187561 744.728821,670.339966 743.147278,668.602722 
	C743.164124,668.556641 742.926453,669.205933 742.861145,669.384216 
	C739.477722,664.309448 736.081299,658.877808 732.336426,653.698120 
	C728.943726,649.005676 725.329712,644.449280 721.519897,640.089233 
	C717.926392,635.976807 713.576294,632.487793 710.252869,628.188171 
	C707.221802,624.266907 705.121216,619.626282 702.305298,615.151367 
	C702.000000,615.000000 702.004822,615.003418 702.004822,615.003418 
z"/>
<path fill="#C38B70" opacity="1.000000" stroke="none" 
	d="
M662.059387,511.567627 
	C661.031738,510.288940 658.978455,508.397949 659.231384,506.895142 
	C660.157898,501.389679 655.945190,498.298096 654.056396,494.163788 
	C652.897156,491.626129 650.913330,491.728516 648.556763,492.928253 
	C640.091858,497.237671 632.412964,502.160767 625.653198,509.296753 
	C618.140930,517.227234 608.452698,522.907288 597.961731,526.925354 
	C591.383484,529.444824 585.425659,533.869873 578.714844,535.682434 
	C570.875916,537.799683 562.520569,538.006409 554.384033,538.998840 
	C554.287720,539.010498 554.121216,538.446655 554.216858,537.582764 
	C568.297546,535.736511 580.993591,530.481445 593.520142,525.039551 
	C600.090027,522.185364 606.008728,517.832214 612.221497,514.156067 
	C625.149231,504.654663 638.055542,495.123718 651.030334,485.686951 
	C652.771179,484.420807 654.858032,483.630280 657.629761,482.176208 
	C659.236267,492.601288 660.664185,501.867401 662.059387,511.567627 
z"/>
<path fill="#FBE9D3" opacity="1.000000" stroke="none" 
	d="
M611.937134,514.023071 
	C606.008728,517.832214 600.090027,522.185364 593.520142,525.039551 
	C580.993591,530.481445 568.297546,535.736511 554.182617,537.256653 
	C553.492371,537.577820 553.065674,537.656433 552.069336,537.749146 
	C551.335022,537.789673 551.170227,537.816040 551.005432,537.842407 
	C550.836975,537.816467 550.668518,537.790466 549.999939,537.763916 
	C549.335022,537.789673 549.170227,537.816040 549.005432,537.842407 
	C548.836975,537.816467 548.668518,537.790466 548.000000,537.763916 
	C547.335083,537.789673 547.170288,537.816040 547.005493,537.842407 
	C546.580139,537.781128 546.154846,537.719788 545.112366,537.394775 
	C541.575012,536.602295 538.665222,536.004395 535.732544,535.557495 
	C526.754089,534.189148 518.849670,530.202942 511.184723,525.610718 
	C511.080658,525.362976 510.921265,525.158325 510.541504,524.893250 
	C502.894684,516.474121 496.004578,507.749512 491.574890,497.347534 
	C490.938629,495.853424 490.486542,494.280914 489.981171,492.363403 
	C494.440948,492.655029 495.235382,496.449524 496.646423,499.710175 
	C497.533020,501.758972 497.950714,504.222504 499.364136,505.793304 
	C504.379578,511.367096 507.895569,518.305542 514.939819,522.101501 
	C517.763733,523.623291 519.422241,527.670166 522.280945,528.689514 
	C528.280090,530.828674 534.675964,532.020081 541.000549,533.021973 
	C544.960449,533.649170 549.094666,533.372131 553.134338,533.171997 
	C554.249146,533.116699 555.305481,531.881470 556.717346,530.977112 
	C558.697754,534.148071 561.407898,532.709717 564.713196,532.209290 
	C572.526306,531.026245 577.968872,525.257935 585.082214,523.020935 
	C587.511658,522.256836 590.143372,522.036804 592.704102,521.811096 
	C597.189392,521.415771 600.350952,518.652832 603.467529,515.911377 
	C605.928162,513.746887 608.719360,513.720947 611.937134,514.023071 
z"/>
<path fill="#F5DFC9" opacity="1.000000" stroke="none" 
	d="
M304.067139,525.075134 
	C329.220337,520.631409 351.674500,536.080505 356.059265,560.929016 
	C357.144775,567.080505 357.234192,573.407837 357.517395,580.006165 
	C357.954590,573.912048 354.488129,568.578003 352.360687,562.956665 
	C349.777588,556.131409 346.405121,549.608887 343.627716,542.851196 
	C342.590210,540.326721 341.639801,538.604858 338.617767,537.704041 
	C335.701599,536.834717 333.434082,533.982910 330.564575,532.725647 
	C323.094269,529.452698 315.404297,526.871521 307.009064,527.342834 
	C306.100586,527.393738 305.114014,526.053162 304.067139,525.075134 
z"/>
<path fill="#BD8064" opacity="1.000000" stroke="none" 
	d="
M541.978394,513.309875 
	C536.698486,511.122986 531.418640,508.936066 525.906982,506.472839 
	C528.185303,506.507385 531.169983,506.059418 533.113892,507.275330 
	C538.379028,510.568604 543.850586,510.100250 549.514526,509.623138 
	C553.012634,509.328430 556.543762,509.441895 560.056458,509.289398 
	C560.601990,509.265747 561.114685,508.764801 561.665710,508.541931 
	C564.572083,507.366821 567.490295,505.237000 570.395996,505.250427 
	C576.369019,505.277954 580.770813,503.348541 585.374817,499.454712 
	C589.185425,496.231964 594.717651,495.020477 599.526611,493.012390 
	C602.100342,491.937622 604.757446,491.062500 607.601624,490.454071 
	C601.082886,494.867432 594.350647,498.943024 587.590881,502.972321 
	C584.385742,504.882782 581.127991,506.704773 577.894043,508.566833 
	C577.894043,508.566833 577.419495,508.703156 576.790649,508.785431 
	C565.148621,513.282837 553.614868,513.691772 541.978394,513.309875 
z"/>
<path fill="#F6E0CA" opacity="1.000000" stroke="none" 
	d="
M666.321289,442.119873 
	C672.567017,435.852509 678.953918,429.717407 685.000183,423.263153 
	C688.125793,419.926697 690.646851,416.023926 693.737854,412.213440 
	C693.544800,414.981079 693.520386,418.107361 692.402344,420.775360 
	C691.648865,422.573608 689.097107,423.528015 687.797791,425.206665 
	C685.144043,428.635132 683.038879,432.506348 680.244751,435.802734 
	C677.653503,438.859772 674.507019,441.458679 671.512512,444.156708 
	C669.733765,445.759308 667.299011,446.830414 665.983276,448.715637 
	C660.728821,456.244202 653.400696,460.487000 644.496155,462.689789 
	C646.416992,460.466095 648.779968,458.677277 650.942993,456.672699 
	C656.119141,451.875763 661.201233,446.977325 666.321289,442.119873 
z"/>
<path fill="#F6E0CA" opacity="1.000000" stroke="none" 
	d="
M577.929688,508.872437 
	C581.127991,506.704773 584.385742,504.882782 587.590881,502.972321 
	C594.350647,498.943024 601.082886,494.867432 607.985046,490.510742 
	C608.143738,490.210693 608.111511,490.188843 608.443481,490.167358 
	C609.614746,489.467773 610.454102,488.789642 611.293457,488.111542 
	C611.565247,488.046692 611.781982,487.900269 612.341064,487.392700 
	C613.252502,486.521240 613.766541,485.929352 614.280640,485.337463 
	C614.280640,485.337494 614.258850,485.207214 614.640198,485.260193 
	C619.386780,481.912231 623.752014,478.511261 628.117249,475.110291 
	C628.117249,475.110291 627.997864,475.005219 628.369751,474.943390 
	C632.524536,472.007996 636.307373,469.134430 640.090210,466.260895 
	C640.090210,467.755432 640.090210,469.250000 640.090210,470.793488 
	C639.226990,470.584015 638.043274,470.145813 637.961304,470.298523 
	C634.057129,477.577820 626.929077,481.058838 620.597229,485.594452 
	C616.846924,488.280853 612.665771,491.298096 612.914490,497.400787 
	C611.720459,496.269257 610.825073,495.420776 609.860229,494.506439 
	C606.831909,495.987427 603.861023,497.427643 600.901306,498.890381 
	C593.398254,502.598358 585.900635,506.317108 578.391846,510.013214 
	C578.355530,510.031128 578.162476,509.799011 578.091492,509.658844 
	C578.018311,509.514374 578.004944,509.339600 577.929688,508.872437 
z"/>
<path fill="#F5DFC9" opacity="1.000000" stroke="none" 
	d="
M231.127365,509.112549 
	C240.683029,511.645874 250.239655,514.817871 259.991272,517.187378 
	C268.793365,519.326111 277.810303,520.578552 286.726685,522.252930 
	C287.359619,522.371704 287.944733,522.745361 288.813293,523.241211 
	C287.472107,524.157532 285.759033,525.599304 284.285034,525.386353 
	C273.315979,523.801575 262.354553,522.095947 251.471298,520.008301 
	C243.749054,518.527039 236.853775,515.060974 231.127365,509.112549 
z"/>
<path fill="#F6E1CC" opacity="1.000000" stroke="none" 
	d="
M899.813965,843.978516 
	C893.909424,836.274414 888.148010,828.110718 882.208862,820.078369 
	C877.921021,814.279419 873.396912,808.655090 868.880676,802.636963 
	C870.675598,802.870911 873.484619,802.837280 874.279480,804.085815 
	C876.253967,807.187622 877.732605,810.031250 881.672302,811.550476 
	C884.115845,812.492859 886.683472,815.632385 887.320190,818.242920 
	C888.884827,824.658447 894.967712,827.784790 897.229065,833.425476 
	C898.519958,836.645569 899.023193,840.181458 899.813965,843.978516 
z"/>
<path fill="#F6E0CA" opacity="1.000000" stroke="none" 
	d="
M702.393188,375.729370 
	C699.724121,364.287659 695.243835,353.489624 688.036987,343.873596 
	C685.300293,340.222107 682.703491,336.465729 679.982056,332.409607 
	C683.722839,335.530243 687.904663,338.674286 691.217957,342.559021 
	C694.453430,346.352539 696.993591,350.792389 699.494629,355.146332 
	C703.121399,361.459839 704.189697,368.291809 702.393188,375.729370 
z"/>
<path fill="#F5DFC9" opacity="1.000000" stroke="none" 
	d="
M356.874847,583.118530 
	C356.440826,589.099243 356.292297,595.390198 354.765778,601.326782 
	C352.145752,611.516052 348.665283,621.484009 345.273712,631.769409 
	C344.488586,631.099670 343.355377,630.021545 343.557648,629.339478 
	C345.935669,621.319153 348.747070,613.421387 350.936523,605.353577 
	C351.960968,601.578674 351.490692,597.408691 352.424164,593.595520 
	C353.296783,590.031128 355.129974,586.701965 356.874847,583.118530 
z"/>
<path fill="#BD8064" opacity="1.000000" stroke="none" 
	d="
M640.247681,465.986511 
	C636.307373,469.134430 632.524536,472.007996 628.426392,474.999756 
	C630.661621,471.378357 632.550476,466.848022 635.891113,464.052612 
	C644.705933,456.676361 654.144592,450.044708 663.357971,443.147430 
	C663.996094,442.669708 664.823853,442.445404 665.942383,442.111542 
	C661.201233,446.977325 656.119141,451.875763 650.942993,456.672699 
	C648.779968,458.677277 646.416992,460.466095 644.101746,462.686432 
	C644.058594,463.019928 643.843384,463.297760 643.588135,463.556213 
	C643.332886,463.814667 642.962585,464.098969 642.962585,464.098969 
	C642.110107,464.636688 641.257568,465.174408 640.247681,465.986511 
z"/>
<path fill="#F6E0CA" opacity="1.000000" stroke="none" 
	d="
M541.989319,513.511841 
	C553.614868,513.691772 565.148621,513.282837 576.558716,508.869934 
	C574.804626,510.705322 572.889709,513.651611 570.459167,514.167175 
	C562.533691,515.848389 554.523560,518.083496 546.273254,516.305786 
	C544.965698,516.024048 543.801453,515.077332 542.302612,514.277466 
	C542.034302,514.116882 542.000244,513.713806 541.989319,513.511841 
z"/>
<path fill="#F6E0CA" opacity="1.000000" stroke="none" 
	d="
M696.338013,407.984863 
	C697.764832,402.568970 699.814941,397.188751 701.087952,391.630554 
	C701.955933,387.840790 701.737793,383.802246 702.084961,379.417786 
	C703.111084,380.435028 704.902222,381.935242 704.858032,383.379303 
	C704.663574,389.734344 706.216919,396.302002 701.118469,402.081787 
	C699.658875,403.736511 699.318115,406.795837 696.338013,407.984863 
z"/>
<path fill="#F5DFC9" opacity="1.000000" stroke="none" 
	d="
M194.198883,486.145691 
	C202.160690,491.150726 210.044647,496.546936 218.045532,502.238556 
	C215.418839,501.535156 212.573456,500.747742 209.955658,499.487549 
	C206.119370,497.640747 202.170731,495.820251 198.804794,493.279877 
	C196.729355,491.713531 195.648468,488.829376 194.198883,486.145691 
z"/>
<path fill="#C38B70" opacity="1.000000" stroke="none" 
	d="
M829.156677,756.304810 
	C828.288330,756.495483 826.923462,756.747864 826.421814,756.203979 
	C821.791382,751.184143 815.753174,747.403870 812.873352,740.816345 
	C812.167358,739.201294 810.988525,737.792908 810.208679,736.019043 
	C816.613708,742.498108 822.837158,749.247620 829.156677,756.304810 
z"/>
<path fill="#FBE9D3" opacity="1.000000" stroke="none" 
	d="
M489.479553,488.972534 
	C488.069550,480.996948 486.963257,472.952393 485.934814,464.447052 
	C488.227753,467.062836 487.658966,471.203156 488.801849,473.971893 
	C490.717316,478.612396 489.514221,483.032166 490.579987,487.380737 
	C490.682251,487.798187 490.065948,488.391754 489.479553,488.972534 
z"/>
<path fill="#C38B70" opacity="1.000000" stroke="none" 
	d="
M846.329712,775.417603 
	C840.756531,775.270813 839.916382,769.911865 837.244385,766.086548 
	C840.266785,768.845276 843.223022,771.973633 846.329712,775.417603 
z"/>
<path fill="#F9E6D0" opacity="1.000000" stroke="none" 
	d="
M486.014282,462.875458 
	C485.607544,459.405640 485.383270,455.599213 485.341187,451.358093 
	C487.420929,454.698242 489.084534,458.486603 486.014282,462.875458 
z"/>
<path fill="#C38B70" opacity="1.000000" stroke="none" 
	d="
M835.241394,763.351807 
	C830.850647,764.003174 830.020447,760.721802 829.225708,757.107056 
	C831.272522,758.819214 833.229065,760.919189 835.241394,763.351807 
z"/>
<path fill="#F5DFC9" opacity="1.000000" stroke="none" 
	d="
M292.125214,524.068848 
	C293.168793,523.711426 294.378510,523.632935 295.792603,523.802612 
	C295.094879,528.305725 293.512726,524.075806 292.125214,524.068848 
z"/>
<path fill="#F6E0CA" opacity="1.000000" stroke="none" 
	d="
M694.395142,411.948883 
	C694.529846,410.824127 695.013794,409.623566 695.766113,408.235931 
	C695.604431,409.323578 695.174377,410.598328 694.395142,411.948883 
z"/>
<path fill="#F5DFC9" opacity="1.000000" stroke="none" 
	d="
M219.140350,503.124268 
	C220.002441,503.197998 220.962952,503.570099 222.036972,504.232880 
	C221.179901,504.156616 220.209335,503.789612 219.140350,503.124268 
z"/>
<path fill="#F5DFC9" opacity="1.000000" stroke="none" 
	d="
M299.039673,524.369568 
	C299.920013,524.107056 300.853424,524.160461 302.054352,524.452759 
	C301.245483,524.689575 300.169098,524.687561 299.039673,524.369568 
z"/>
<path fill="#F5DFC9" opacity="1.000000" stroke="none" 
	d="
M225.155090,506.345367 
	C226.017563,506.404358 227.051743,506.763885 228.242218,507.428650 
	C227.374603,507.371216 226.350693,507.008545 225.155090,506.345367 
z"/>
<path fill="#F6E1CC" opacity="1.000000" stroke="none" 
	d="
M867.781738,799.895569 
	C867.165344,799.720337 866.589050,799.197510 865.946533,798.372559 
	C866.527405,798.562927 867.174561,799.055481 867.781738,799.895569 
z"/>
<path fill="#C38B70" opacity="1.000000" stroke="none" 
	d="
M837.247681,765.382751 
	C836.599609,765.271729 835.900940,764.850220 835.253479,764.064941 
	C835.935486,764.158203 836.566345,764.615234 837.247681,765.382751 
z"/>
<path fill="#C38B70" opacity="1.000000" stroke="none" 
	d="
M810.202942,735.407471 
	C809.590088,735.274536 808.896240,734.855896 808.253540,734.076294 
	C808.910522,734.184082 809.516235,734.652893 810.202942,735.407471 
z"/>
<path fill="#F5DFC9" opacity="1.000000" stroke="none" 
	d="
M223.166367,505.104187 
	C223.565567,505.057373 224.098770,505.288452 224.792938,505.776123 
	C224.402710,505.815826 223.851547,505.598938 223.166367,505.104187 
z"/>
<path fill="#F6E1CC" opacity="1.000000" stroke="none" 
	d="
M868.795166,801.861023 
	C868.424744,801.713318 868.108582,801.242554 867.761230,800.478821 
	C868.103210,800.636536 868.476379,801.087280 868.795166,801.861023 
z"/>
<path fill="#F6E0CA" opacity="1.000000" stroke="none" 
	d="
M642.999878,464.347412 
	C642.962585,464.098969 643.332886,463.814667 643.549316,463.727570 
	C643.702820,464.134949 643.639893,464.629395 643.577026,465.123871 
	C643.397095,464.947876 643.217163,464.771851 642.999878,464.347412 
z"/>
<path fill="#F5DFC9" opacity="1.000000" stroke="none" 
	d="
M297.472168,526.445312 
	C297.523132,526.414429 297.421204,526.476196 297.472168,526.445312 
z"/>
<path fill="#F5DFC9" opacity="1.000000" stroke="none" 
	d="
M229.172821,508.100952 
	C229.383713,507.979584 229.729828,508.125244 230.236252,508.515015 
	C230.033722,508.628723 229.670883,508.498352 229.172821,508.100952 
z"/>
<path fill="#F9E6D0" opacity="1.000000" stroke="none" 
	d="
M485.592651,449.800476 
	C485.458801,449.663666 485.461731,449.354980 485.677795,448.909515 
	C485.937225,449.076965 485.883392,449.362244 485.592651,449.800476 
z"/>
<path fill="#F6E0CA" opacity="1.000000" stroke="none" 
	d="
M610.002930,243.003693 
	C610.090881,242.971786 610.175903,242.936188 610.126709,242.947296 
	C609.992371,242.994003 610.000000,243.000000 610.002930,243.003693 
z"/>
<path fill="#BE8063" opacity="1.000000" stroke="none" 
	d="
M520.199890,373.435791 
	C520.322388,373.032349 520.694092,373.024078 520.880493,373.018250 
	C520.945679,380.149231 521.004272,387.294861 520.653625,394.420349 
	C520.286011,401.891205 517.202881,408.441132 514.424133,415.367828 
	C510.955261,424.014587 510.381073,434.048279 509.784790,443.560150 
	C509.151184,453.666840 509.509521,463.900574 510.347809,474.003052 
	C510.687347,478.094788 513.501892,481.962616 515.083313,485.974487 
	C517.098694,491.087402 519.005615,496.243073 520.915649,501.756897 
	C512.945496,494.324615 509.962189,484.143341 507.838135,473.759888 
	C503.047272,450.339905 507.643677,427.593048 513.287170,404.925385 
	C515.848511,394.637512 517.831848,384.205719 520.199890,373.435791 
z"/>
<path fill="#C38B70" opacity="1.000000" stroke="none" 
	d="
M511.170563,525.977783 
	C518.849670,530.202942 526.754089,534.189148 535.732544,535.557495 
	C538.665222,536.004395 541.575012,536.602295 544.794739,537.339844 
	C541.533630,537.685303 537.965210,538.026978 534.415100,537.891052 
	C531.805115,537.791138 529.126831,536.428894 526.646790,536.787903 
	C523.832031,537.195374 521.998413,536.309753 520.162842,534.625854 
	C517.157471,531.869019 514.158203,529.105469 511.170563,525.977783 
z"/>
<path fill="#BD8064" opacity="1.000000" stroke="none" 
	d="
M627.734375,475.076721 
	C623.752014,478.511261 619.386780,481.912231 614.684204,485.309479 
	C616.952087,479.693085 621.756653,476.867432 627.734375,475.076721 
z"/>
<path fill="#BE8063" opacity="1.000000" stroke="none" 
	d="
M524.808105,505.031006 
	C523.620239,504.518250 522.362000,503.632568 520.984741,502.437744 
	C522.156433,502.971771 523.447083,503.814941 524.808105,505.031006 
z"/>
<path fill="#BD8064" opacity="1.000000" stroke="none" 
	d="
M610.906677,488.080017 
	C610.454102,488.789642 609.614746,489.467773 608.441772,490.151001 
	C608.912048,489.453552 609.716003,488.751007 610.906677,488.080017 
z"/>
<path fill="#C38B70" opacity="1.000000" stroke="none" 
	d="
M660.997559,533.997559 
	C660.919434,534.992554 660.843628,535.989990 660.767883,536.987427 
	C660.546692,536.959717 660.325500,536.932007 660.104309,536.904297 
	C660.240540,536.071289 660.376831,535.238281 660.758545,534.203979 
	C661.004028,534.002625 661.000000,534.000000 660.997559,533.997559 
z"/>
<path fill="#BD8064" opacity="1.000000" stroke="none" 
	d="
M613.916443,485.267670 
	C613.766541,485.929352 613.252502,486.521240 612.423462,487.210938 
	C612.589722,486.605133 613.070984,485.901489 613.916443,485.267670 
z"/>
<path fill="#C38B70" opacity="1.000000" stroke="none" 
	d="
M701.998291,614.997681 
	C701.912292,615.031189 701.827881,615.066895 701.874146,615.052979 
	C702.004822,615.003418 702.000000,615.000000 701.998291,614.997681 
z"/>
<path fill="#C38B70" opacity="1.000000" stroke="none" 
	d="
M681.998291,582.997681 
	C681.912231,583.031189 681.827881,583.066895 681.874146,583.052979 
	C682.004822,583.003418 682.000000,583.000000 681.998291,582.997681 
z"/>
<path fill="#C38B70" opacity="1.000000" stroke="none" 
	d="
M551.083008,538.031921 
	C551.170227,537.816040 551.335022,537.789673 551.747192,537.802612 
	C551.716614,537.968384 551.438599,538.094910 551.083008,538.031921 
z"/>
<path fill="#C38B70" opacity="1.000000" stroke="none" 
	d="
M549.083008,538.031860 
	C549.170227,537.816040 549.335022,537.789673 549.747192,537.802551 
	C549.716614,537.968384 549.438599,538.094910 549.083008,538.031860 
z"/>
<path fill="#C38B70" opacity="1.000000" stroke="none" 
	d="
M547.083008,538.031921 
	C547.170288,537.816040 547.335083,537.789673 547.747253,537.802551 
	C547.716614,537.968384 547.438538,538.094910 547.083008,538.031921 
z"/>
<path fill="#F6F4EB" opacity="1.000000" stroke="none" 
	d="
M526.019348,342.007751 
	C526.047791,342.449371 526.076172,342.890961 526.062134,343.662170 
	C524.389893,345.287903 521.466125,345.428650 522.501038,348.966980 
	C522.851196,350.163940 521.392151,351.890045 520.759949,353.374359 
	C520.077393,352.840698 519.394775,352.307037 518.712158,351.773407 
	C518.199768,350.813202 517.106628,349.738403 517.269775,348.911530 
	C518.275940,343.812836 519.907837,338.818909 520.639771,333.691406 
	C521.125305,330.289795 520.457520,326.723511 520.016602,323.052399 
	C519.778076,322.458588 519.829041,322.043335 520.304321,321.323364 
	C522.596924,321.709351 524.465332,322.400116 526.333679,323.090851 
	C526.244812,328.428009 526.156006,333.765198 525.812805,339.656738 
	C525.296448,340.674194 525.034546,341.137268 524.772644,341.600342 
	C525.188232,341.736145 525.603760,341.871948 526.019348,342.007751 
z"/>
<path fill="#F9E6D0" opacity="1.000000" stroke="none" 
	d="
M526.602783,322.846741 
	C524.465332,322.400116 522.596924,321.709351 520.354736,321.012939 
	C521.138611,312.952057 522.296387,304.896820 523.662231,295.393799 
	C526.231689,305.183960 528.819885,313.583221 526.602783,322.846741 
z"/>
<path fill="#F9E6D0" opacity="1.000000" stroke="none" 
	d="
M526.085205,341.675964 
	C525.603760,341.871948 525.188232,341.736145 524.772644,341.600342 
	C525.034546,341.137268 525.296448,340.674194 525.813843,340.104523 
	C526.096497,340.446686 526.123779,340.895447 526.085205,341.675964 
z"/>
</svg>